{"title":"Bahar S01E44-45.HDTV.X264.ARI Greek Subs","uid":15460378,"size":713793945,"categoryP":"video","categoryS":"tv_shows","magnet":"?xt=urn:btih:844fbb20c909deb96542746c2900423656f1d8e3&amp;dn=Bahar+S01E44-45.HDTV.X264.ARI+Greek+Subs&amp;tr=udp%3A%2F%2Ftracker.leechers-paradise.org%3A6969&amp;tr=udp%3A%2F%2Fzer0day.ch%3A1337&amp;tr=udp%3A%2F%2Fopen.demonii.com%3A1337&amp;tr=udp%3A%2F%2Ftracker.coppersurfer.tk%3A6969&amp;tr=udp%3A%2F%2Fexodus.desync.com%3A6969","seeders":2,"leechers":0,"uploader":"Aris2015","files":1,"time":1470038583,"description":"Telika den akseizi o kopos gia tin Bahar exei liga downloads, kano 4 ores convert (to cpu 100% sto pc) gia to tpt. I ligi fili pou to katebasoun apo mena, asto katebasoun apo ton anonymous.\r\n\r\n\r\nGeneral\r\nComplete name               : Bahar.S01E44-45.HDTV.X264.ARI.mp4\r\nFormat                      : MPEG-4\r\nFormat profile              : Base Media\r\nCodec ID                    : isom (isom/iso2/avc1/mp41)\r\nFile size                   : 681 MiB\r\nDuration                    : 1h 24mn\r\nOverall bit rate mode       : Variable\r\nOverall bit rate            : 1 128 Kbps\r\nMovie name                  : Bahar\r\nWriting application         : Lavf57.41.100\r\n\r\nVideo\r\nID                          : 1\r\nFormat                      : AVC\r\nFormat/Info                 : Advanced Video Codec\r\nFormat profile              :   \r\nFormat settings, CABAC      : Yes\r\nFormat settings, ReFrames   : 5 frames\r\nCodec ID                    : avc1\r\nCodec ID/Info               : Advanced Video Coding\r\nDuration                    : 1h 24mn\r\nBit rate mode               : Variable\r\nBit rate                    : 1 000 Kbps\r\nMaximum bit rate            : 17.5 Mbps\r\nWidth                       : 720 pixels\r\nHeight                      : 404 pixels\r\nDisplay aspect ratio        : 16:9\r\nOriginal display aspect rat : 16:9\r\nFrame rate mode             : Constant\r\nFrame rate                  : 25.000 fps\r\nColor space                 : YUV\r\nChroma subsampling          : 4:2:0\r\nBit depth                   : 8 bits\r\nScan type                   : Progressive\r\nBits/(Pixel*Frame)          : 0.138\r\nStream size                 : 600 MiB (88%)\r\nWriting library             : x264 core 148 r2643\r\n\r\n\r\nAudio\r\nID                          : 2\r\nFormat                      : AAC\r\nFormat/Info                 : Advanced Audio Codec\r\nFormat profile              : LC\r\nCodec ID                    : 40\r\nDuration                    : 1h 24mn\r\nBit rate mode               : Constant\r\nBit rate                    : 128 Kbps\r\nChannel(s)                  : 2 channels\r\nChannel positions           : Front: L R\r\nSampling rate               : 48.0 KHz\r\nFrame rate                  : 46.875 fps (1024 spf)\r\nCompression mode            : Lossy\r\nStream size                 : 77.3 MiB (11%)\r\nLanguage                    : Turkish\r\nDefault                     : Yes","torrent":{"xt":"urn:btih:844fbb20c909deb96542746c2900423656f1d8e3","amp;dn":"Bahar+S01E44-45.HDTV.X264.ARI+Greek+Subs","amp;tr":["udp%3A%2F%2Ftracker.leechers-paradise.org%3A6969","udp%3A%2F%2Fzer0day.ch%3A1337","udp%3A%2F%2Fopen.demonii.com%3A1337","udp%3A%2F%2Ftracker.coppersurfer.tk%3A6969","udp%3A%2F%2Fexodus.desync.com%3A6969"],"infoHash":"844fbb20c909deb96542746c2900423656f1d8e3","infoHashBuffer":{"type":"Buffer","data":[132,79,187,32,201,9,222,185,101,66,116,108,41,0,66,54,86,241,216,227]},"announce":[],"urlList":[]}}